<?xml version="1.0" encoding="utf-8"?>
<svg version="1.1" xmlns:xlink="http://www.w3.org/1999/xlink" width="10px" height="10px" xmlns="http://www.w3.org/2000/svg">
  <defs>
    <pattern id="BGPattern" patternUnits="userSpaceOnUse" alignment="0 0" imageRepeat="None" />
    <mask fill="white" id="Clip922">
      <path d="M 3.450281421819888 2.3733583530394  L 3.450281421819888 3.410881797054409  L 2.412757977804878 3.410881797054409  C 1.8397495831240405 3.410881797054409  1.3752345093621017 2.9463667232924706  1.3752345093621017 2.373358340825516  C 1.3752345093621017 1.8003499583585625  1.8397495831240405 1.3358348845966233  2.4127579655909948 1.3358348845966233  C 2.9857663480579495 1.3358348845966233  3.4502814218198887 1.8003499583585625  3.4502814218198887 2.373358340825516  Z M 5.551594746716699 3.410881797054409  L 4.527204502814259 3.410881797054409  L 4.52720450281426 2.3733583530394  C 4.52720450281426 1.2055817829440025  3.5805345479002764 0.2589118280300182  2.412757977804879 0.2589118280300182  C 1.2449814077094818 0.2589118280300182  0.29831145279549753 1.2055817829440025  0.29831145279549753 2.373358353039399  C 0.29831145279549753 3.5411349231347957  1.2449814077094818 4.48780487804878  2.412757977804879 4.48780487804878  L 3.4502814218198887 4.48780487804878  L 3.4502814218198887 5.51219512195122  L 2.412757977804879 5.51219512195122  C 1.2449814077094818 5.51219512195122  0.29831145279549753 6.458865076865205  0.29831145279549753 7.6266416469606  C 0.29831145279549753 8.794418217055998  1.2449814077094818 9.741088171969981  2.412757977804879 9.741088171969981  C 3.5805345479002764 9.741088171969981  4.52720450281426 8.794418217055998  4.52720450281426 7.6266416469606  L 4.527204502814259 6.589118202945592  L 5.551594746716699 6.589118202945592  L 5.551594746716699 7.6266416469606  C 5.551594746716699 8.794418217055998  6.498264701630683 9.741088171969981  7.66604127172608 9.741088171969981  C 8.833817841821476 9.741088171969981  9.78048779673546 8.794418217055998  9.78048779673546 7.6266416469606  C 9.78048779673546 6.458865076865205  8.833817841821476 5.51219512195122  7.66604127172608 5.51219512195122  L 6.62851782771107 5.51219512195122  L 6.62851782771107 4.48780487804878  L 7.66604127172608 4.48780487804878  C 8.833817841821476 4.48780487804878  9.78048779673546 3.5411349231347957  9.78048779673546 2.373358353039399  C 9.78048779673546 1.2055817829440025  8.833817841821476 0.2589118280300182  7.66604127172608 0.2589118280300182  C 6.498264701630683 0.2589118280300182  5.551594746716699 1.2055817829440025  5.551594746716699 2.373358353039399  L 5.551594746716699 3.410881797054409  Z M 5.551594746716699 4.48780487804878  L 5.551594746716699 5.51219512195122  L 4.527204502814259 5.51219512195122  L 4.527204502814259 4.48780487804878  L 5.551594746716699 4.48780487804878  Z M 2.412757977804879 6.589118202945592  L 3.4502814218198887 6.589118202945592  L 3.4502814218198887 7.6266416469606  C 3.4502814218198887 8.199650041641437  2.9857663480579495 8.664165115403378  2.4127579655909948 8.664165115403378  C 1.8397495831240405 8.664165115403378  1.3752345093621017 8.199650041641437  1.3752345093621017 7.6266416591744814  C 1.3752345093621017 7.053633276707529  1.8397495831240405 6.589118202945588  2.4127579655909948 6.589118202945588  Z M 7.6660412717260815 3.410881797054409  L 6.628517827711072 3.410881797054409  L 6.628517827711072 2.3733583530394  C 6.628517827711068 1.8003499583585607  7.093032901473007 1.3358348845966224  7.666041283939963 1.3358348845966224  C 8.239049666406917 1.3358348845966224  8.703564740168856 1.8003499583585607  8.703564740168856 2.373358340825515  C 8.703564740168856 2.9463667232924697  8.239049666406917 3.410881797054409  7.666041283939963 3.410881797054409  Z M 6.62851782771107 7.6266416469606  L 6.62851782771107 6.589118202945592  L 7.66604127172608 6.589118202945588  C 8.239049666406917 6.589118202945588  8.703564740168856 7.053633276707529  8.703564740168856 7.6266416591744814  C 8.703564740168856 8.199650041641437  8.239049666406917 8.664165115403378  7.666041283939963 8.664165115403378  C 7.093032901473007 8.664165115403378  6.628517827711068 8.199650041641437  6.628517827711068 7.6266416591744814  Z " fill-rule="evenodd" />
    </mask>
  </defs>
  <g transform="matrix(1 0 0 1 -134 -13 )">
    <path d="M 3.450281421819888 2.3733583530394  L 3.450281421819888 3.410881797054409  L 2.412757977804878 3.410881797054409  C 1.8397495831240405 3.410881797054409  1.3752345093621017 2.9463667232924706  1.3752345093621017 2.373358340825516  C 1.3752345093621017 1.8003499583585625  1.8397495831240405 1.3358348845966233  2.4127579655909948 1.3358348845966233  C 2.9857663480579495 1.3358348845966233  3.4502814218198887 1.8003499583585625  3.4502814218198887 2.373358340825516  Z M 5.551594746716699 3.410881797054409  L 4.527204502814259 3.410881797054409  L 4.52720450281426 2.3733583530394  C 4.52720450281426 1.2055817829440025  3.5805345479002764 0.2589118280300182  2.412757977804879 0.2589118280300182  C 1.2449814077094818 0.2589118280300182  0.29831145279549753 1.2055817829440025  0.29831145279549753 2.373358353039399  C 0.29831145279549753 3.5411349231347957  1.2449814077094818 4.48780487804878  2.412757977804879 4.48780487804878  L 3.4502814218198887 4.48780487804878  L 3.4502814218198887 5.51219512195122  L 2.412757977804879 5.51219512195122  C 1.2449814077094818 5.51219512195122  0.29831145279549753 6.458865076865205  0.29831145279549753 7.6266416469606  C 0.29831145279549753 8.794418217055998  1.2449814077094818 9.741088171969981  2.412757977804879 9.741088171969981  C 3.5805345479002764 9.741088171969981  4.52720450281426 8.794418217055998  4.52720450281426 7.6266416469606  L 4.527204502814259 6.589118202945592  L 5.551594746716699 6.589118202945592  L 5.551594746716699 7.6266416469606  C 5.551594746716699 8.794418217055998  6.498264701630683 9.741088171969981  7.66604127172608 9.741088171969981  C 8.833817841821476 9.741088171969981  9.78048779673546 8.794418217055998  9.78048779673546 7.6266416469606  C 9.78048779673546 6.458865076865205  8.833817841821476 5.51219512195122  7.66604127172608 5.51219512195122  L 6.62851782771107 5.51219512195122  L 6.62851782771107 4.48780487804878  L 7.66604127172608 4.48780487804878  C 8.833817841821476 4.48780487804878  9.78048779673546 3.5411349231347957  9.78048779673546 2.373358353039399  C 9.78048779673546 1.2055817829440025  8.833817841821476 0.2589118280300182  7.66604127172608 0.2589118280300182  C 6.498264701630683 0.2589118280300182  5.551594746716699 1.2055817829440025  5.551594746716699 2.373358353039399  L 5.551594746716699 3.410881797054409  Z M 5.551594746716699 4.48780487804878  L 5.551594746716699 5.51219512195122  L 4.527204502814259 5.51219512195122  L 4.527204502814259 4.48780487804878  L 5.551594746716699 4.48780487804878  Z M 2.412757977804879 6.589118202945592  L 3.4502814218198887 6.589118202945592  L 3.4502814218198887 7.6266416469606  C 3.4502814218198887 8.199650041641437  2.9857663480579495 8.664165115403378  2.4127579655909948 8.664165115403378  C 1.8397495831240405 8.664165115403378  1.3752345093621017 8.199650041641437  1.3752345093621017 7.6266416591744814  C 1.3752345093621017 7.053633276707529  1.8397495831240405 6.589118202945588  2.4127579655909948 6.589118202945588  Z M 7.6660412717260815 3.410881797054409  L 6.628517827711072 3.410881797054409  L 6.628517827711072 2.3733583530394  C 6.628517827711068 1.8003499583585607  7.093032901473007 1.3358348845966224  7.666041283939963 1.3358348845966224  C 8.239049666406917 1.3358348845966224  8.703564740168856 1.8003499583585607  8.703564740168856 2.373358340825515  C 8.703564740168856 2.9463667232924697  8.239049666406917 3.410881797054409  7.666041283939963 3.410881797054409  Z M 6.62851782771107 7.6266416469606  L 6.62851782771107 6.589118202945592  L 7.66604127172608 6.589118202945588  C 8.239049666406917 6.589118202945588  8.703564740168856 7.053633276707529  8.703564740168856 7.6266416591744814  C 8.703564740168856 8.199650041641437  8.239049666406917 8.664165115403378  7.666041283939963 8.664165115403378  C 7.093032901473007 8.664165115403378  6.628517827711068 8.199650041641437  6.628517827711068 7.6266416591744814  Z " fill-rule="nonzero" fill="rgba(255, 255, 255, 1)" stroke="none" transform="matrix(1 0 0 1 134 13 )" class="fill" />
    <path d="M 3.450281421819888 2.3733583530394  L 3.450281421819888 3.410881797054409  L 2.412757977804878 3.410881797054409  C 1.8397495831240405 3.410881797054409  1.3752345093621017 2.9463667232924706  1.3752345093621017 2.373358340825516  C 1.3752345093621017 1.8003499583585625  1.8397495831240405 1.3358348845966233  2.4127579655909948 1.3358348845966233  C 2.9857663480579495 1.3358348845966233  3.4502814218198887 1.8003499583585625  3.4502814218198887 2.373358340825516  Z " stroke-width="0" stroke-dasharray="0" stroke="rgba(255, 255, 255, 0)" fill="none" transform="matrix(1 0 0 1 134 13 )" class="stroke" mask="url(#Clip922)" />
    <path d="M 5.551594746716699 3.410881797054409  L 4.527204502814259 3.410881797054409  L 4.52720450281426 2.3733583530394  C 4.52720450281426 1.2055817829440025  3.5805345479002764 0.2589118280300182  2.412757977804879 0.2589118280300182  C 1.2449814077094818 0.2589118280300182  0.29831145279549753 1.2055817829440025  0.29831145279549753 2.373358353039399  C 0.29831145279549753 3.5411349231347957  1.2449814077094818 4.48780487804878  2.412757977804879 4.48780487804878  L 3.4502814218198887 4.48780487804878  L 3.4502814218198887 5.51219512195122  L 2.412757977804879 5.51219512195122  C 1.2449814077094818 5.51219512195122  0.29831145279549753 6.458865076865205  0.29831145279549753 7.6266416469606  C 0.29831145279549753 8.794418217055998  1.2449814077094818 9.741088171969981  2.412757977804879 9.741088171969981  C 3.5805345479002764 9.741088171969981  4.52720450281426 8.794418217055998  4.52720450281426 7.6266416469606  L 4.527204502814259 6.589118202945592  L 5.551594746716699 6.589118202945592  L 5.551594746716699 7.6266416469606  C 5.551594746716699 8.794418217055998  6.498264701630683 9.741088171969981  7.66604127172608 9.741088171969981  C 8.833817841821476 9.741088171969981  9.78048779673546 8.794418217055998  9.78048779673546 7.6266416469606  C 9.78048779673546 6.458865076865205  8.833817841821476 5.51219512195122  7.66604127172608 5.51219512195122  L 6.62851782771107 5.51219512195122  L 6.62851782771107 4.48780487804878  L 7.66604127172608 4.48780487804878  C 8.833817841821476 4.48780487804878  9.78048779673546 3.5411349231347957  9.78048779673546 2.373358353039399  C 9.78048779673546 1.2055817829440025  8.833817841821476 0.2589118280300182  7.66604127172608 0.2589118280300182  C 6.498264701630683 0.2589118280300182  5.551594746716699 1.2055817829440025  5.551594746716699 2.373358353039399  L 5.551594746716699 3.410881797054409  Z " stroke-width="0" stroke-dasharray="0" stroke="rgba(255, 255, 255, 0)" fill="none" transform="matrix(1 0 0 1 134 13 )" class="stroke" mask="url(#Clip922)" />
    <path d="M 5.551594746716699 4.48780487804878  L 5.551594746716699 5.51219512195122  L 4.527204502814259 5.51219512195122  L 4.527204502814259 4.48780487804878  L 5.551594746716699 4.48780487804878  Z " stroke-width="0" stroke-dasharray="0" stroke="rgba(255, 255, 255, 0)" fill="none" transform="matrix(1 0 0 1 134 13 )" class="stroke" mask="url(#Clip922)" />
    <path d="M 2.412757977804879 6.589118202945592  L 3.4502814218198887 6.589118202945592  L 3.4502814218198887 7.6266416469606  C 3.4502814218198887 8.199650041641437  2.9857663480579495 8.664165115403378  2.4127579655909948 8.664165115403378  C 1.8397495831240405 8.664165115403378  1.3752345093621017 8.199650041641437  1.3752345093621017 7.6266416591744814  C 1.3752345093621017 7.053633276707529  1.8397495831240405 6.589118202945588  2.4127579655909948 6.589118202945588  Z " stroke-width="0" stroke-dasharray="0" stroke="rgba(255, 255, 255, 0)" fill="none" transform="matrix(1 0 0 1 134 13 )" class="stroke" mask="url(#Clip922)" />
    <path d="M 7.6660412717260815 3.410881797054409  L 6.628517827711072 3.410881797054409  L 6.628517827711072 2.3733583530394  C 6.628517827711068 1.8003499583585607  7.093032901473007 1.3358348845966224  7.666041283939963 1.3358348845966224  C 8.239049666406917 1.3358348845966224  8.703564740168856 1.8003499583585607  8.703564740168856 2.373358340825515  C 8.703564740168856 2.9463667232924697  8.239049666406917 3.410881797054409  7.666041283939963 3.410881797054409  Z " stroke-width="0" stroke-dasharray="0" stroke="rgba(255, 255, 255, 0)" fill="none" transform="matrix(1 0 0 1 134 13 )" class="stroke" mask="url(#Clip922)" />
    <path d="M 6.62851782771107 7.6266416469606  L 6.62851782771107 6.589118202945592  L 7.66604127172608 6.589118202945588  C 8.239049666406917 6.589118202945588  8.703564740168856 7.053633276707529  8.703564740168856 7.6266416591744814  C 8.703564740168856 8.199650041641437  8.239049666406917 8.664165115403378  7.666041283939963 8.664165115403378  C 7.093032901473007 8.664165115403378  6.628517827711068 8.199650041641437  6.628517827711068 7.6266416591744814  Z " stroke-width="0" stroke-dasharray="0" stroke="rgba(255, 255, 255, 0)" fill="none" transform="matrix(1 0 0 1 134 13 )" class="stroke" mask="url(#Clip922)" />
  </g>
</svg>