<?xml version="1.0" encoding="utf-8"?>
<svg version="1.1" xmlns:xlink="http://www.w3.org/1999/xlink" width="16px" height="16px" xmlns="http://www.w3.org/2000/svg">
  <defs>
    <pattern id="BGPattern" patternUnits="userSpaceOnUse" alignment="0 0" imageRepeat="None" />
    <mask fill="white" id="Clip912">
      <path d="M 13.231671875000004 13  C 14.613875 12.955361328125  15.734375 11.834949218750001  15.734375 10.452869140625001  L 15.734375 2.7681171874999997  C 15.734375 1.3860195312499997  14.613875 0.265625  13.231671875000004 0.265625  L 2.7683281249999965 0.265625  C 1.3861249999999998 0.265625  0.265625 1.3860195312499997  0.265625 2.7681171874999997  L 0.265625 10.452869140625001  C 0.265625 11.834949218750001  1.3861249999999998 12.955361328125  2.7683281249999965 13  L 13.231671875000004 13  Z M 5.776947265624997 15.469789062499999  L 10.223052734375003 15.469789062499999  C 10.562837890625005 15.469789062499999  10.838287109375003 15.19433984375  10.838287109375003 14.854554687499999  C 10.838287109375003 14.51476953125  10.562837890625005 14.239320312499999  10.223052734375003 14.239320312499999  L 5.776947265624997 14.239320312499999  C 5.437162109375002 14.239320312499999  5.161712890624997 14.51476953125  5.161712890624997 14.854554687499999  C 5.161712890624997 15.19433984375  5.437162109375002 15.469789062499999  5.776947265624997 15.469789062499999  Z M 2.7683281249999965 1.53125  L 13.231671875000004 1.53125  C 13.913791015625002 1.53125  14.46875 2.0861035156249983  14.46875 2.7505390624999997  L 14.46875 10.435291015625001  C 14.46875 11.134882812500003  13.913791015625002 11.68975390625  13.231671875000004 11.68975390625  L 2.7683281249999965 11.68975390625  C 2.086191406250002 11.68975390625  1.53125 11.134900390624999  1.53125 10.452886718750001  L 1.53125 2.7681171874999997  C 1.53125 2.0861035156249983  2.0862089843749985 1.53125  2.7683281249999965 1.53125  Z M 9.066833984375002 8.780750000000001  C 9.240601147411859 8.78074389652943  9.408726286257398 8.70929301550374  9.528242187499998 8.583154296875001  L 12.377357421875004 5.5757304687500024  C 12.617720703125002 5.322025390625001  12.606892578124999 4.921490234375  12.353169921875 4.681126953125002  C 12.099464843749999 4.440781250000001  11.698912109375001 4.45157421875  11.458548828125004 4.705314453124998  L 9.071791015625003 7.224716796875001  L 7.240800781250002 5.267181640624997  C 7.121143480238317 5.139255999474262  6.9538139142962905 5.0666504704556665  6.778648736965785 5.0666504704556665  C 6.610817808883439 5.0666504704556665  6.4498606820823525 5.133320501157346  6.331185546874998 5.251994140625001  L 3.634560546875001 7.948601562500002  C 3.3874296875000027 8.195732421875  3.3874296875000027 8.596425781250002  3.634560546875001 8.8435390625  C 3.758117187499998 8.967095703125  3.920082031249997 9.028882812500001  4.082029296875 9.028882812500001  C 4.243976562500002 9.028882812500001  4.405941406250001 8.967095703125  4.529498046874998 8.8435390625  L 6.763449218749997 6.609587890625001  L 8.606673828124997 8.58021875  C 8.725858773738807 8.707638112694909  8.892362094299884 8.780197891171518  9.066833984375002 8.780750000000001  Z " fill-rule="evenodd" />
    </mask>
  </defs>
  <g transform="matrix(1 0 0 1 -22 -15 )">
    <path d="M 13.231671875000004 13  C 14.613875 12.955361328125  15.734375 11.834949218750001  15.734375 10.452869140625001  L 15.734375 2.7681171874999997  C 15.734375 1.3860195312499997  14.613875 0.265625  13.231671875000004 0.265625  L 2.7683281249999965 0.265625  C 1.3861249999999998 0.265625  0.265625 1.3860195312499997  0.265625 2.7681171874999997  L 0.265625 10.452869140625001  C 0.265625 11.834949218750001  1.3861249999999998 12.955361328125  2.7683281249999965 13  L 13.231671875000004 13  Z M 5.776947265624997 15.469789062499999  L 10.223052734375003 15.469789062499999  C 10.562837890625005 15.469789062499999  10.838287109375003 15.19433984375  10.838287109375003 14.854554687499999  C 10.838287109375003 14.51476953125  10.562837890625005 14.239320312499999  10.223052734375003 14.239320312499999  L 5.776947265624997 14.239320312499999  C 5.437162109375002 14.239320312499999  5.161712890624997 14.51476953125  5.161712890624997 14.854554687499999  C 5.161712890624997 15.19433984375  5.437162109375002 15.469789062499999  5.776947265624997 15.469789062499999  Z M 2.7683281249999965 1.53125  L 13.231671875000004 1.53125  C 13.913791015625002 1.53125  14.46875 2.0861035156249983  14.46875 2.7505390624999997  L 14.46875 10.435291015625001  C 14.46875 11.134882812500003  13.913791015625002 11.68975390625  13.231671875000004 11.68975390625  L 2.7683281249999965 11.68975390625  C 2.086191406250002 11.68975390625  1.53125 11.134900390624999  1.53125 10.452886718750001  L 1.53125 2.7681171874999997  C 1.53125 2.0861035156249983  2.0862089843749985 1.53125  2.7683281249999965 1.53125  Z M 9.066833984375002 8.780750000000001  C 9.240601147411859 8.78074389652943  9.408726286257398 8.70929301550374  9.528242187499998 8.583154296875001  L 12.377357421875004 5.5757304687500024  C 12.617720703125002 5.322025390625001  12.606892578124999 4.921490234375  12.353169921875 4.681126953125002  C 12.099464843749999 4.440781250000001  11.698912109375001 4.45157421875  11.458548828125004 4.705314453124998  L 9.071791015625003 7.224716796875001  L 7.240800781250002 5.267181640624997  C 7.121143480238317 5.139255999474262  6.9538139142962905 5.0666504704556665  6.778648736965785 5.0666504704556665  C 6.610817808883439 5.0666504704556665  6.4498606820823525 5.133320501157346  6.331185546874998 5.251994140625001  L 3.634560546875001 7.948601562500002  C 3.3874296875000027 8.195732421875  3.3874296875000027 8.596425781250002  3.634560546875001 8.8435390625  C 3.758117187499998 8.967095703125  3.920082031249997 9.028882812500001  4.082029296875 9.028882812500001  C 4.243976562500002 9.028882812500001  4.405941406250001 8.967095703125  4.529498046874998 8.8435390625  L 6.763449218749997 6.609587890625001  L 8.606673828124997 8.58021875  C 8.725858773738807 8.707638112694909  8.892362094299884 8.780197891171518  9.066833984375002 8.780750000000001  Z " fill-rule="nonzero" fill="rgba(51, 51, 51, 1)" stroke="none" transform="matrix(1 0 0 1 22 15 )" class="fill" />
    <path d="M 13.231671875000004 13  C 14.613875 12.955361328125  15.734375 11.834949218750001  15.734375 10.452869140625001  L 15.734375 2.7681171874999997  C 15.734375 1.3860195312499997  14.613875 0.265625  13.231671875000004 0.265625  L 2.7683281249999965 0.265625  C 1.3861249999999998 0.265625  0.265625 1.3860195312499997  0.265625 2.7681171874999997  L 0.265625 10.452869140625001  C 0.265625 11.834949218750001  1.3861249999999998 12.955361328125  2.7683281249999965 13  L 13.231671875000004 13  Z " stroke-width="0" stroke-dasharray="0" stroke="rgba(255, 255, 255, 0)" fill="none" transform="matrix(1 0 0 1 22 15 )" class="stroke" mask="url(#Clip912)" />
    <path d="M 5.776947265624997 15.469789062499999  L 10.223052734375003 15.469789062499999  C 10.562837890625005 15.469789062499999  10.838287109375003 15.19433984375  10.838287109375003 14.854554687499999  C 10.838287109375003 14.51476953125  10.562837890625005 14.239320312499999  10.223052734375003 14.239320312499999  L 5.776947265624997 14.239320312499999  C 5.437162109375002 14.239320312499999  5.161712890624997 14.51476953125  5.161712890624997 14.854554687499999  C 5.161712890624997 15.19433984375  5.437162109375002 15.469789062499999  5.776947265624997 15.469789062499999  Z " stroke-width="0" stroke-dasharray="0" stroke="rgba(255, 255, 255, 0)" fill="none" transform="matrix(1 0 0 1 22 15 )" class="stroke" mask="url(#Clip912)" />
    <path d="M 2.7683281249999965 1.53125  L 13.231671875000004 1.53125  C 13.913791015625002 1.53125  14.46875 2.0861035156249983  14.46875 2.7505390624999997  L 14.46875 10.435291015625001  C 14.46875 11.134882812500003  13.913791015625002 11.68975390625  13.231671875000004 11.68975390625  L 2.7683281249999965 11.68975390625  C 2.086191406250002 11.68975390625  1.53125 11.134900390624999  1.53125 10.452886718750001  L 1.53125 2.7681171874999997  C 1.53125 2.0861035156249983  2.0862089843749985 1.53125  2.7683281249999965 1.53125  Z " stroke-width="0" stroke-dasharray="0" stroke="rgba(255, 255, 255, 0)" fill="none" transform="matrix(1 0 0 1 22 15 )" class="stroke" mask="url(#Clip912)" />
    <path d="M 9.066833984375002 8.780750000000001  C 9.240601147411859 8.78074389652943  9.408726286257398 8.70929301550374  9.528242187499998 8.583154296875001  L 12.377357421875004 5.5757304687500024  C 12.617720703125002 5.322025390625001  12.606892578124999 4.921490234375  12.353169921875 4.681126953125002  C 12.099464843749999 4.440781250000001  11.698912109375001 4.45157421875  11.458548828125004 4.705314453124998  L 9.071791015625003 7.224716796875001  L 7.240800781250002 5.267181640624997  C 7.121143480238317 5.139255999474262  6.9538139142962905 5.0666504704556665  6.778648736965785 5.0666504704556665  C 6.610817808883439 5.0666504704556665  6.4498606820823525 5.133320501157346  6.331185546874998 5.251994140625001  L 3.634560546875001 7.948601562500002  C 3.3874296875000027 8.195732421875  3.3874296875000027 8.596425781250002  3.634560546875001 8.8435390625  C 3.758117187499998 8.967095703125  3.920082031249997 9.028882812500001  4.082029296875 9.028882812500001  C 4.243976562500002 9.028882812500001  4.405941406250001 8.967095703125  4.529498046874998 8.8435390625  L 6.763449218749997 6.609587890625001  L 8.606673828124997 8.58021875  C 8.725858773738807 8.707638112694909  8.892362094299884 8.780197891171518  9.066833984375002 8.780750000000001  Z " stroke-width="0" stroke-dasharray="0" stroke="rgba(255, 255, 255, 0)" fill="none" transform="matrix(1 0 0 1 22 15 )" class="stroke" mask="url(#Clip912)" />
  </g>
</svg>