<?xml version="1.0" encoding="utf-8"?>
<svg version="1.1" xmlns:xlink="http://www.w3.org/1999/xlink" width="18px" height="18px" xmlns="http://www.w3.org/2000/svg">
  <defs>
    <pattern id="BGPattern" patternUnits="userSpaceOnUse" alignment="0 0" imageRepeat="None" />
    <mask fill="white" id="Clip933">
      <path d="M 10.7421875 6.39453125  L 10.73828125 6.39453125  C 10.73828125 6.875000000000001  11.12890625 7.26171875  11.60546875 7.26171875  L 16.8203125 7.26171875  C 17.30078125 7.26171875  17.6875 6.87109375  17.6875 6.39453125  C 17.6875 5.9140625  17.296875 5.527343750000001  16.8203125 5.527343750000001  L 13.703125 5.527343750000001  L 17.4375 1.79296875  C 17.77734375 1.453125  17.77734375 0.90234375  17.4375 0.5625  C 17.09765625 0.22265625  16.546875 0.22265625  16.20703125 0.5625  L 12.4765625 4.29296875  L 12.4765625 1.1796875  C 12.4765625 0.69921875  12.0859375 0.3124999999999998  11.609375 0.3124999999999998  C 11.12890625 0.3124999999999998  10.7421875 0.7031249999999998  10.7421875 1.1796875  L 10.7421875 6.39453125  Z M 7.2578125 11.60546875  L 7.26171875 11.605468750000002  C 7.26171875 11.125000000000002  6.87109375 10.738281250000002  6.39453125 10.738281250000002  L 1.1796875 10.738281250000002  C 0.69921875 10.738281250000002  0.3124999999999998 11.128906250000002  0.3124999999999998 11.605468750000002  C 0.3124999999999998 12.085937500000002  0.7031249999999998 12.472656250000002  1.1796875 12.472656250000002  L 4.296875 12.472656250000002  L 0.5625 16.20703125  C 0.22265625 16.546875  0.22265625 17.09765625  0.5625 17.4375  C 0.90234375 17.77734375  1.453125 17.77734375  1.79296875 17.4375  L 5.5234375 13.70703125  L 5.5234375 16.82421875  C 5.5234375 17.3046875  5.9140625 17.69140625  6.390625 17.69140625  C 6.87109375 17.69140625  7.2578125 17.30078125  7.2578125 16.82421875  L 7.2578125 11.60546875  Z " fill-rule="evenodd" />
    </mask>
  </defs>
  <g transform="matrix(1 0 0 1 -7 -7 )">
    <path d="M 10.7421875 6.39453125  L 10.73828125 6.39453125  C 10.73828125 6.875000000000001  11.12890625 7.26171875  11.60546875 7.26171875  L 16.8203125 7.26171875  C 17.30078125 7.26171875  17.6875 6.87109375  17.6875 6.39453125  C 17.6875 5.9140625  17.296875 5.527343750000001  16.8203125 5.527343750000001  L 13.703125 5.527343750000001  L 17.4375 1.79296875  C 17.77734375 1.453125  17.77734375 0.90234375  17.4375 0.5625  C 17.09765625 0.22265625  16.546875 0.22265625  16.20703125 0.5625  L 12.4765625 4.29296875  L 12.4765625 1.1796875  C 12.4765625 0.69921875  12.0859375 0.3124999999999998  11.609375 0.3124999999999998  C 11.12890625 0.3124999999999998  10.7421875 0.7031249999999998  10.7421875 1.1796875  L 10.7421875 6.39453125  Z M 7.2578125 11.60546875  L 7.26171875 11.605468750000002  C 7.26171875 11.125000000000002  6.87109375 10.738281250000002  6.39453125 10.738281250000002  L 1.1796875 10.738281250000002  C 0.69921875 10.738281250000002  0.3124999999999998 11.128906250000002  0.3124999999999998 11.605468750000002  C 0.3124999999999998 12.085937500000002  0.7031249999999998 12.472656250000002  1.1796875 12.472656250000002  L 4.296875 12.472656250000002  L 0.5625 16.20703125  C 0.22265625 16.546875  0.22265625 17.09765625  0.5625 17.4375  C 0.90234375 17.77734375  1.453125 17.77734375  1.79296875 17.4375  L 5.5234375 13.70703125  L 5.5234375 16.82421875  C 5.5234375 17.3046875  5.9140625 17.69140625  6.390625 17.69140625  C 6.87109375 17.69140625  7.2578125 17.30078125  7.2578125 16.82421875  L 7.2578125 11.60546875  Z " fill-rule="nonzero" fill="rgba(255, 255, 255, 1)" stroke="none" transform="matrix(1 0 0 1 7 7 )" class="fill" />
    <path d="M 10.7421875 6.39453125  L 10.73828125 6.39453125  C 10.73828125 6.875000000000001  11.12890625 7.26171875  11.60546875 7.26171875  L 16.8203125 7.26171875  C 17.30078125 7.26171875  17.6875 6.87109375  17.6875 6.39453125  C 17.6875 5.9140625  17.296875 5.527343750000001  16.8203125 5.527343750000001  L 13.703125 5.527343750000001  L 17.4375 1.79296875  C 17.77734375 1.453125  17.77734375 0.90234375  17.4375 0.5625  C 17.09765625 0.22265625  16.546875 0.22265625  16.20703125 0.5625  L 12.4765625 4.29296875  L 12.4765625 1.1796875  C 12.4765625 0.69921875  12.0859375 0.3124999999999998  11.609375 0.3124999999999998  C 11.12890625 0.3124999999999998  10.7421875 0.7031249999999998  10.7421875 1.1796875  L 10.7421875 6.39453125  Z " stroke-width="0" stroke-dasharray="0" stroke="rgba(255, 255, 255, 0)" fill="none" transform="matrix(1 0 0 1 7 7 )" class="stroke" mask="url(#Clip933)" />
    <path d="M 7.2578125 11.60546875  L 7.26171875 11.605468750000002  C 7.26171875 11.125000000000002  6.87109375 10.738281250000002  6.39453125 10.738281250000002  L 1.1796875 10.738281250000002  C 0.69921875 10.738281250000002  0.3124999999999998 11.128906250000002  0.3124999999999998 11.605468750000002  C 0.3124999999999998 12.085937500000002  0.7031249999999998 12.472656250000002  1.1796875 12.472656250000002  L 4.296875 12.472656250000002  L 0.5625 16.20703125  C 0.22265625 16.546875  0.22265625 17.09765625  0.5625 17.4375  C 0.90234375 17.77734375  1.453125 17.77734375  1.79296875 17.4375  L 5.5234375 13.70703125  L 5.5234375 16.82421875  C 5.5234375 17.3046875  5.9140625 17.69140625  6.390625 17.69140625  C 6.87109375 17.69140625  7.2578125 17.30078125  7.2578125 16.82421875  L 7.2578125 11.60546875  Z " stroke-width="0" stroke-dasharray="0" stroke="rgba(255, 255, 255, 0)" fill="none" transform="matrix(1 0 0 1 7 7 )" class="stroke" mask="url(#Clip933)" />
  </g>
</svg>