<?xml version="1.0" encoding="utf-8"?>
<svg version="1.1" xmlns:xlink="http://www.w3.org/1999/xlink" width="31px" height="15px" xmlns="http://www.w3.org/2000/svg">
  <defs>
    <pattern id="BGPattern" patternUnits="userSpaceOnUse" alignment="0 0" imageRepeat="None" />
    <mask fill="white" id="Clip948">
      <path d="M 0 7.5  C 0 3.3  6.819999999999999 0  15.5 0  C 24.18 0  31 3.3  31 7.5  C 31 11.700000000000001  24.18 15  15.5 15  C 6.819999999999999 15  0 11.700000000000001  0 7.5  Z " fill-rule="evenodd" />
    </mask>
  </defs>
  <g transform="matrix(1 0 0 1 -95 -216 )">
    <path d="M 0 7.5  C 0 3.3  6.819999999999999 0  15.5 0  C 24.18 0  31 3.3  31 7.5  C 31 11.700000000000001  24.18 15  15.5 15  C 6.819999999999999 15  0 11.700000000000001  0 7.5  Z " fill-rule="nonzero" fill="rgba(45, 177, 239, 1)" stroke="none" transform="matrix(1 0 0 1 95 216 )" class="fill" />
    <path d="M 0 7.5  C 0 3.3  6.819999999999999 0  15.5 0  C 24.18 0  31 3.3  31 7.5  C 31 11.700000000000001  24.18 15  15.5 15  C 6.819999999999999 15  0 11.700000000000001  0 7.5  Z " stroke-width="0" stroke-dasharray="0" stroke="rgba(220, 223, 230, 1)" fill="none" transform="matrix(1 0 0 1 95 216 )" class="stroke" mask="url(#Clip948)" />
  </g>
</svg>