<?xml version="1.0" encoding="utf-8"?>
<svg version="1.1" xmlns:xlink="http://www.w3.org/1999/xlink" width="12px" height="12px" xmlns="http://www.w3.org/2000/svg">
  <defs>
    <pattern id="BGPattern" patternUnits="userSpaceOnUse" alignment="0 0" imageRepeat="None" />
    <mask fill="white" id="Clip969">
      <path d="M 6.661607142857142 5.338392857142857  L 6.661607142857142 0.7017857142857143  C 6.661607142857142 0.3375  6.364285714285713 0.040178571428571425  6 0.040178571428571425  C 5.635714285714286 0.040178571428571425  5.338392857142857 0.3375  5.338392857142857 0.7017857142857143  L 5.338392857142857 5.338392857142857  L 0.7017857142857143 5.338392857142857  C 0.3375 5.338392857142857  0.040178571428571425 5.635714285714286  0.040178571428571425 6  C 0.040178571428571425 6.364285714285714  0.3375 6.661607142857142  0.7017857142857143 6.661607142857142  L 5.338392857142857 6.661607142857142  L 5.338392857142857 11.298214285714284  C 5.338392857142857 11.6625  5.635714285714286 11.959821428571427  6 11.959821428571427  C 6.364285714285714 11.959821428571427  6.661607142857142 11.662499999999998  6.661607142857142 11.298214285714284  L 6.661607142857142 6.661607142857142  L 11.298214285714284 6.661607142857142  C 11.6625 6.661607142857142  11.959821428571427 6.364285714285713  11.959821428571427 6  C 11.959821428571427 5.635714285714286  11.662499999999998 5.338392857142857  11.298214285714284 5.338392857142857  L 6.661607142857142 5.338392857142857  Z " fill-rule="evenodd" />
    </mask>
  </defs>
  <g transform="matrix(1 0 0 1 -33 -473 )">
    <path d="M 6.661607142857142 5.338392857142857  L 6.661607142857142 0.7017857142857143  C 6.661607142857142 0.3375  6.364285714285713 0.040178571428571425  6 0.040178571428571425  C 5.635714285714286 0.040178571428571425  5.338392857142857 0.3375  5.338392857142857 0.7017857142857143  L 5.338392857142857 5.338392857142857  L 0.7017857142857143 5.338392857142857  C 0.3375 5.338392857142857  0.040178571428571425 5.635714285714286  0.040178571428571425 6  C 0.040178571428571425 6.364285714285714  0.3375 6.661607142857142  0.7017857142857143 6.661607142857142  L 5.338392857142857 6.661607142857142  L 5.338392857142857 11.298214285714284  C 5.338392857142857 11.6625  5.635714285714286 11.959821428571427  6 11.959821428571427  C 6.364285714285714 11.959821428571427  6.661607142857142 11.662499999999998  6.661607142857142 11.298214285714284  L 6.661607142857142 6.661607142857142  L 11.298214285714284 6.661607142857142  C 11.6625 6.661607142857142  11.959821428571427 6.364285714285713  11.959821428571427 6  C 11.959821428571427 5.635714285714286  11.662499999999998 5.338392857142857  11.298214285714284 5.338392857142857  L 6.661607142857142 5.338392857142857  Z " fill-rule="nonzero" fill="rgba(255, 255, 255, 1)" stroke="none" transform="matrix(1 0 0 1 33 473 )" class="fill" />
    <path d="M 6.661607142857142 5.338392857142857  L 6.661607142857142 0.7017857142857143  C 6.661607142857142 0.3375  6.364285714285713 0.040178571428571425  6 0.040178571428571425  C 5.635714285714286 0.040178571428571425  5.338392857142857 0.3375  5.338392857142857 0.7017857142857143  L 5.338392857142857 5.338392857142857  L 0.7017857142857143 5.338392857142857  C 0.3375 5.338392857142857  0.040178571428571425 5.635714285714286  0.040178571428571425 6  C 0.040178571428571425 6.364285714285714  0.3375 6.661607142857142  0.7017857142857143 6.661607142857142  L 5.338392857142857 6.661607142857142  L 5.338392857142857 11.298214285714284  C 5.338392857142857 11.6625  5.635714285714286 11.959821428571427  6 11.959821428571427  C 6.364285714285714 11.959821428571427  6.661607142857142 11.662499999999998  6.661607142857142 11.298214285714284  L 6.661607142857142 6.661607142857142  L 11.298214285714284 6.661607142857142  C 11.6625 6.661607142857142  11.959821428571427 6.364285714285713  11.959821428571427 6  C 11.959821428571427 5.635714285714286  11.662499999999998 5.338392857142857  11.298214285714284 5.338392857142857  L 6.661607142857142 5.338392857142857  Z " stroke-width="0" stroke-dasharray="0" stroke="rgba(255, 255, 255, 0)" fill="none" transform="matrix(1 0 0 1 33 473 )" class="stroke" mask="url(#Clip969)" />
  </g>
</svg>